<?xml version="1.0" encoding="UTF-8"?><svg id="a" xmlns="http://www.w3.org/2000/svg" viewBox="0 0 800 600.7"><path d="M259.51,283.47c-28.87,0-56.99,0-85.11,0-23.72,0-47.44,0-71.15,0-.83,0-1.8,.21-2.47-.13-.84-.44-1.8-1.26-2.01-2.1-.14-.57,.74-1.8,1.44-2.1,1.15-.49,2.52-.61,3.8-.61,12.03-.04,24.07-.02,36.32-.02,2.09-7.73,7.53-12.69,14.05-16.65,6.45-3.92,13.46-6.09,21.04-5.49,2.42,.19,3.01-.98,3.85-2.65,10.7-21.5,37.06-31.95,58.72-23.2,8.45,3.41,14.98,9.05,19.24,17.25,.49,.95,2.06,1.98,3.07,1.92,8.12-.52,14.54,2.73,20.25,8.82,1.11-2.98,2.16-5.76,3.19-8.55,3.83-10.37,9.65-18.94,20.05-23.94,5.71-2.75,9.13-8.05,11.52-13.68,7.74-18.22,15.6-36.42,22.61-54.93,4.7-12.41,12.32-21.25,24.9-25.54,3.52-1.2,5.55-3.49,7.3-6.7,5.42-10.02,11-19.98,16.86-29.75,7.18-11.96,17.65-9.57,24.25-2.09,7.29,8.27,13.56,17.46,19.97,26.47,6.89,9.69,13.37,19.68,20.15,29.46,1.33,1.92,3.27,3.42,4.78,5.24,3.17,3.8,6.24,7.68,9.34,11.54,.44,.55,.7,1.29,1.22,1.73,9.77,8.29,14.05,19.47,16.63,31.55,.69,3.24,1.45,6.47,2.24,9.98,5.09-3.5,10.23-5.97,16.44-5.13,.67,.09,1.66-1.43,2.33-2.32,6.62-8.81,15.37-14.27,26.27-15.5,9.49-1.07,17.1,2.91,22.53,10.74,18.48-7.98,33.44-2.36,38.39,13.79,5.48,.84,10.79,1.27,15.87,2.59,2.98,.77,5.81,2.67,8.29,4.6,2.63,2.05,4.23,4.97,2.77,8.5-1.39,3.37-4.32,4.01-7.64,4-31.47-.03-62.93-.02-94.4-.02-7.49,0-14.98,0-22.92,0,.46,.64,.63,1.07,.94,1.27,12.06,7.75,19.05,18.96,22.48,32.67,.78,3.1,1.58,6.24,2.86,9.15,3.25,7.37,9.16,11.64,17.14,11.05,12.67-.93,20.18,5.37,25.11,16,2.54,5.49,4.72,11.14,7.1,16.7,1.03,2.4,2.07,4.8,3.22,7.14,2.26,4.57,5.81,6.87,11.1,6.83,5.92-.04,9.86,3.77,13.15,8.12,1.85,2.45,3.6,5.14,4.61,8.01,3.54,10.03,10.23,17.58,18.18,24.24,6.09,5.1,10.91,11.04,14.49,18.29,6.68,13.55,17.63,23.47,29.35,32.66,12.08,9.46,23.95,19.2,35.88,28.86,1.19,.97,2.31,2.12,3.14,3.4,.54,.83,.5,2.04,.72,3.07-1.09,.03-2.22,.25-3.25,.03-1.01-.22-1.96-.82-2.86-1.37-19.13-11.69-37.48-24.5-53.53-40.19-6.04-5.9-10.46-13.46-15.8-20.11-2.55-3.19-5.07-6.72-8.39-8.93-15.13-10.07-30.61-19.62-45.83-29.56-27.25-17.81-52.34-38.13-72.63-63.86-18.23-23.12-31.47-48.64-36.32-77.94-1.65-9.95-2.15-20.09-3.22-30.14-.46-4.25-.87-8.52-1.61-12.73-1.07-6.1-5.11-10.26-9.6-14.16-2.21-1.92-4.23-4.16-5.9-6.57-4.99-7.22-9.76-14.59-14.89-21.79,6.41,18.3,13.6,36.34,15.2,56.03-.31-.6-.68-1.18-.91-1.81-10.06-27.19-21.76-53.65-35.32-79.27-1.68-3.18-4.44-5.83-6.9-8.54-1.56-1.72-3.41-1.57-4.83,.37-2.1,2.87-4.39,5.65-6.14,8.73-4.86,8.57-9.57,17.23-14.14,25.97-1.52,2.91-3.45,5.03-6.54,6.14-1.33,.48-2.53,1.33-3.88,1.76-10.39,3.31-16.13,10.76-19.92,20.7-6.68,17.51-13.89,34.81-21.17,52.09-4.25,10.1-10.63,18.4-20.95,23.32-5.49,2.62-8.58,7.86-10.69,13.38-3.04,7.97-5.78,16.07-8.42,24.18-.93,2.87-2.2,4.97-5.01,6.42-14.15,7.32-23.39,19.55-31.97,32.41-3.3,4.94-6.64,9.87-10.12,14.68-3.62,5.02-8.58,8.25-14.63,9.45-7.75,1.53-12.82,6.27-16.58,12.87-4,7.02-7.72,14.23-12.19,20.94-7.26,10.89-17.76,18.52-28.14,26.1-26.9,19.66-55.01,37.37-85.22,51.58-2.78,1.31-5.64,2.5-8.55,3.5-1.47,.51-3.13,.48-4.7,.7l-.64-1.12c1.04-1.1,1.92-2.46,3.16-3.25,11.03-7.01,22-14.13,33.23-20.82,23.41-13.96,46.68-28.09,67.88-45.34,8.96-7.29,16.56-15.66,21.94-26,2.74-5.26,5.81-10.37,9.03-15.35,4.13-6.37,10.11-10.36,17.53-11.94,5.2-1.11,9.01-3.88,12.04-8.17,7-9.91,14.1-19.74,21.29-29.52,1.8-2.45,4.07-4.56,6.62-7.37Zm-113.91-5.1c1.14,.08,1.73,.15,2.32,.15,38.71,.02,77.43,.03,116.14,.01,.89,0,1.9-.24,2.66-.7,2.64-1.6,5.21-3.3,7.77-5.03,2.01-1.35,4.26-7.66,3.5-9.6-2.1-5.35-13.53-10.67-19.04-8.16-3.96,1.81-4.87,.23-6.06-2.91-2.4-6.34-6.8-11.1-12.62-14.53-13.67-8.07-33.52-5.73-45.82,5.29-4.95,4.44-8.78,9.63-11.46,15.72-.85,1.94-1.52,4.34-4.77,3.53-9.03-2.25-16.8,.95-24.04,5.98-3.64,2.53-6.67,5.61-8.58,10.24Zm454.59,86.12c-3.31-6.64-6.06-12.52-9.15-18.22-2.28-4.19-5.58-6.9-10.91-6.51-3.96,.29-7.76-1.14-10.08-4.37-3.23-4.49-6.16-9.25-8.65-14.18-2.39-4.75-4.08-9.85-6.04-14.81-3.62-9.14-9.57-13.97-20.18-13.24-8.38,.58-15.7-3.33-20.11-10.7-2.69-4.49-4.66-9.61-5.91-14.71-3.12-12.75-8.72-23.53-20.61-30.24-1.31-.74-2.27-2.36-3.01-3.77-5.43-10.3-7.75-21.56-10.15-32.82-1.41-6.65-3.01-13.28-6.95-19.08-.02,3.45,.12,6.85,.57,10.22,1.24,9.29,1.96,18.71,4.02,27.81,7.9,34.8,26.65,63.47,51.56,88.38,22.19,22.19,47.78,39.91,75.59,56.22Zm-12.82-147.45c-.19-.94-.3-1.28-.32-1.63-.51-7.85-4.73-13.04-11.82-15.88-7.48-2.99-14.69-2.62-20.86,3.16-2.26,2.12-3.19,1.37-4.39-.99-4.55-8.93-13.35-12.7-23.03-10.02-8.88,2.46-15.71,7.68-20.49,15.53-1.2,1.97-2.23,2.53-4.81,2.07-2.82-.51-6.18-.04-8.84,1.09-5.87,2.51-6.32,4.22-4.07,10.12,.34,.89,.76,1.75,1,2.66,.58,2.19,1.87,2.79,4.15,2.78,38.47-.15,76.95-.19,115.42-.26,.83,0,1.71,.12,2.49-.1,.82-.22,2.02-.64,2.19-1.22,.2-.69-.35-1.79-.88-2.46-.65-.82-1.54-1.53-2.47-2.02-5.71-2.99-11.72-4.46-18.21-3.35-1.6,.27-3.24,.32-5.06,.49Z"/><path d="M81.87,486.53c2.79-1.69,5.46-3.61,8.38-5.03,14.84-7.21,29.72-14.35,44.63-21.41,38.65-18.32,75.85-39.14,110.34-64.56,28.11-20.71,53.65-44.22,76.05-71.07,5.37-6.44,11.97-11.21,19.53-14.67,3.83-1.75,6.59-4.38,8.68-8.07,7.31-12.93,14.69-25.82,22.31-38.57,2.29-3.83,4.97-7.66,8.26-10.6,5.93-5.31,14.25-4.77,19.44,1.27,3.04,3.53,5.34,7.84,7.35,12.09,6,12.65,11.63,25.49,17.55,38.18,3.08,6.6,7.99,10.83,15.72,11.02,2.13,.05,4.28,.35,6.37,.79,6.23,1.3,11,5.01,13.67,10.53,3.33,6.9,6.66,14.03,8.39,21.43,3.76,16.12,12.63,28.71,25.21,38.69,7.68,6.09,16.41,10.86,24.67,16.23,7.96,5.17,16.14,10.03,23.79,15.62,5.35,3.91,9.23,9.52,10.83,16,2.57,10.45,9.21,17.78,17.04,24.41,10.72,9.09,21.48,18.12,32.14,27.27,1.97,1.69,3.66,3.74,5.34,5.75,.43,.51,.64,1.96,.37,2.16-.63,.45-1.75,.73-2.44,.47-1.87-.7-3.72-1.57-5.41-2.63-13.86-8.66-26.82-18.5-38.9-29.52-7.51-6.85-13.52-14.59-16.18-24.67-1.91-7.24-6.73-12.62-12.82-16.58-7.36-4.78-15.01-9.11-22.68-13.39-16.24-9.05-30.49-20.26-40.6-36.17-4.66-7.33-6.85-15.54-9.28-23.75-1.73-5.86-4.35-11.52-7.13-16.98-2.17-4.27-6.11-6.62-11.08-6.63-12.54-.02-20.82-6.41-25.88-17.4-6.11-13.25-11.97-26.61-18.04-39.88-1.02-2.24-2.33-4.46-3.95-6.28-2.74-3.08-6.16-3.13-9-.12-1.93,2.05-3.55,4.47-4.97,6.92-7.66,13.13-15.05,26.43-22.94,39.43-2.13,3.52-5.12,7.34-8.66,9.04-10.37,4.98-18.38,12.34-25.78,20.95-34.67,40.33-76.32,72.13-122.06,98.8-31.2,18.19-63.3,34.57-97.07,47.48-5.3,2.03-10.8,3.56-16.26,5.13-1.38,.4-2.98,.06-4.48,.06l-.42-1.71Z"/><path d="M277.52,497.24c19.09,11.83,37.83,23.45,56.57,35.07l-.24,1.32c-1.03,.05-2.17,.42-3.07,.11-6.02-2.14-12.18-4.01-17.94-6.73-26.24-12.38-50.79-27.42-72.38-46.99-.79-.72-1.68-1.33-2.53-1.98-4.69-3.6-6.99-3.48-11.8-.19-13.63,9.31-27.3,18.56-41.07,27.65-3.14,2.07-6.74,3.51-10.21,5.03-1.55,.68-3.33,.85-5.01,1.25-.21-.29-.42-.58-.64-.86,.67-.91,1.16-2.08,2.04-2.69,15.48-10.84,30.98-21.66,46.57-32.35,2.62-1.8,5.63-3.08,8.57-4.36,6.25-2.71,12.32-2.26,17.92,1.72,7.76,5.51,15.5,11.04,23.12,16.74,2.09,1.56,3.38,1.49,5.56,.01,32.95-22.4,62.46-48.67,89.87-77.56,21-22.14,47.37-33.75,77.92-35.28,7.83-.39,14.41,2.78,19.14,9.19,23.38,31.73,52.36,57.66,84.65,79.76,24.7,16.91,50.51,32.18,75.77,48.28,7.52,4.79,14.84,9.89,22.22,14.88,.88,.59,1.72,1.32,2.36,2.15,.35,.45,.53,1.42,.27,1.83-.28,.44-1.26,.83-1.77,.68-2.04-.59-4.06-1.29-6.01-2.15-21.22-9.41-41.07-21.31-60.8-33.43-24.25-14.88-47.56-31.1-69.39-49.39-19.32-16.18-37.49-33.59-52.11-54.19-6.37-8.98-14.41-9.44-23.55-8.05-28.12,4.26-50.62,18.27-69.69,39.06-24.64,26.87-52.48,50.12-82.95,70.2-.29,.19-.53,.47-1.4,1.27Z"/><path d="M324.39,297.52c1.95-.24,4.12-3.06,5.73,.75-.7,.64-1.4,1.47-2.26,2.03-5.66,3.71-11.32,7.44-17.1,10.97-.95,.58-2.45,.27-3.7,.37,.31-1.14,.26-2.62,.97-3.38,6.16-6.63,12.33-13.26,18.74-19.64,5.31-5.28,11.57-9.1,19.12-10.41,.76-.13,1.47-.52,3.23-1.17-7.78-6.45-14.96-12.41-22.44-18.6-4.73,5.61-9.59,11.38-14.69,17.43l-2.49-2.37c-1.77,4.06-3.4,8.12-5.27,12.06-3.42,7.22-7.58,13.55-14.1,18.85-5.94,4.83-9.97,12.02-14.78,18.22-1.82,2.35-3.38,4.9-5.27,7.18-.62,.76-1.9,.97-2.88,1.43-.26-.94-.86-1.92-.74-2.81,.68-5.16,1.54-10.29,2.48-16.38-1.99,1.8-3.41,2.98-4.71,4.28-12.84,12.77-25.45,25.78-38.59,38.22-5.21,4.94-11.54,8.73-17.49,12.85-1.53,1.06-3.55,1.4-5.35,2.07l-.43-.79c.4-.52,.69-1.2,1.21-1.52,13.87-8.51,24.92-20.21,36.13-31.74,9.13-9.39,18.31-18.73,27.49-28.08,.58-.59,1.23-1.3,1.97-1.5,1.4-.38,3.01-.85,4.29-.46,.62,.19,1.04,2.24,.94,3.4-.25,2.93-.85,5.83-1.41,9.41,3.53-4.65,6.51-8.94,9.89-12.9,2.29-2.68,5.18-4.83,7.7-7.32,1.59-1.57,3.44-3.12,4.36-5.07,4.54-9.52,8.74-19.2,13.21-28.75,.92-1.97,2.87-5.29,3.75-5.11,3.18,.65,1.46,3.86,1.87,6.03,.06,.32,.14,.63,.34,1.51,3.89-4.81,7.47-9.35,11.21-13.75,.91-1.08,2.36-1.7,3.56-2.53,.73,1.11,1.37,2.3,2.23,3.3,1.99,2.32,3.92,4.73,6.19,6.77,4.15,3.73,8.54,7.21,12.8,10.82,.63,.53,1.14,1.22,1.65,1.87,4.57,5.82,3.69,8.25-3.42,9.54-9.13,1.65-18.29,7.35-23.93,14.94Z"/><path d="M362.35,183.27c-6.64,9.2-13.19,18.29-19.74,27.38-.37-.23-.73-.45-1.1-.68,.65-1.47,1.19-2.99,1.96-4.39,5.64-10.31,11.28-20.63,17.04-30.87,.64-1.13,1.98-1.87,3-2.79,.87,1.16,2.23,2.21,2.54,3.51,1.13,4.72,1.93,9.51,2.8,14.29,.23,1.25,.22,2.53,.41,4.87,.89-1.52,1.3-2.11,1.61-2.75,6.48-13.07,12.91-26.18,19.46-39.21,2.74-5.46,6.35-5.85,10.35-1.19,1.76,2.05,3.22,4.37,4.88,6.64,.9-6.82,1.77-13.55,2.69-20.27,.21-1.52,.47-3.07,.98-4.51,.28-.79,1.07-1.85,1.73-1.93,.65-.08,1.62,.79,2.12,1.48,.6,.85,.88,1.93,1.24,2.94,7.2,20.28,15.96,39.87,25.65,59.07,1.17,2.33,.87,5.5,.88,8.29,.01,4.28-.45,8.56-.42,12.83,.03,4.12,1.37,5.53,5.44,6,4.35,.51,8.72,.79,13.09,1.49-5.81,2.39-11.79,3.89-18.01,2.53-3.53-.77-5.31-3.91-5.45-7.19-.26-5.9,.18-11.83,.25-17.75,.02-1.49,.09-3.15-.49-4.44-7.19-16.01-14.5-31.96-21.78-47.93-.23-.5-.46-.99-1.38-1.46-.34,3.83-.76,7.66-1.01,11.5-.22,3.33-.18,6.67-.41,9.99-.06,.81-.74,1.57-1.14,2.36-.79-.42-1.85-.63-2.31-1.28-2.99-4.14-5.84-8.38-8.77-12.56-.74-1.05-1.59-2.02-2.8-3.53-3.88,7.43-7.73,14.32-11.14,21.42-4.98,10.37-9.63,20.89-14.42,31.35-.2,.43-.25,1.01-.57,1.29-.82,.71-1.76,1.28-2.65,1.91-.5-.85-1.34-1.65-1.46-2.55-.82-6.12-1.48-12.27-2.23-18.4-.23-1.88-.56-3.74-.82-5.44Z"/><path d="M396.76,312.85c-9.35,11.97-18.4,23.56-27.44,35.16-3.65,4.69-7.21,9.46-10.96,14.08-.65,.8-2.03,1.02-3.07,1.5-.05-1.17-.44-2.47-.07-3.5,1.36-3.74,2.97-7.39,4.34-11.12-17.88,24.2-31.58,51.5-54.51,71.83-.57,.5-1.42,.69-2.85,1.35,.41-1.33,.41-2.2,.85-2.65,16.81-17.3,28.81-38.08,42.06-57.97,7.19-10.78,14.47-21.51,21.73-32.24,.52-.77,1.11-1.65,1.89-2.06,.6-.31,1.93-.24,2.25,.17,.45,.59,.58,1.79,.29,2.51-1.74,4.41-3.65,8.75-5.48,13.12-.21,.5-.31,1.03-.68,2.3,7.29-9.63,14.05-18.65,20.91-27.59,2.75-3.59,5.62-7.09,8.61-10.48,3.36-3.79,4.18-3.48,6.48,.98,7.3,14.13,14.54,28.29,22.25,42.21,2.91,5.27,7.01,9.88,10.58,14.78,1.18,1.62,2.4,3.22,3.08,5.51-1.01-.6-2.09-1.12-3.03-1.82-8.96-6.72-15.05-15.87-20.61-25.3-5.42-9.19-10.18-18.77-15.23-28.18-.37-.69-.74-1.37-1.39-2.57Z"/><path d="M447.85,462.14c-5.27,6.2-11,13.04-16.88,19.75-.98,1.12-2.59,1.7-3.91,2.53-.79-1.36-1.87-2.64-2.33-4.11-2.8-8.88-5.47-17.8-8.32-27.17-8.67,8.17-16.79,16.21-26.86,21.69-.27-.27-.54-.53-.81-.8,.46-.7,.83-1.5,1.4-2.09,7.79-8.04,15.57-16.11,23.46-24.06,3.94-3.97,6.33-3.53,8.28,1.78,2.86,7.77,5.34,15.68,8.13,23.99,3.39-3.98,6.7-7.89,10.04-11.78,1.55-1.81,3.14-3.58,4.7-5.38,2.15-2.49,4.45-2.57,6.66-.22,4.82,5.11,9.49,10.36,14.33,15.45,12.88,13.54,25.73,27.12,38.79,40.48,3.25,3.32,7.26,5.9,10.92,8.82-.2,.3-.39,.59-.59,.89-3.94-2.51-8.04-4.8-11.79-7.56-14.68-10.8-26.49-24.62-39.24-37.45-5.03-5.07-10.48-9.71-15.98-14.77Z"/><path d="M225.41,372.2c-29.63,15.71-59.89,28.24-86.71,47.19l-.54-.72c2.35-1.93,4.6-4,7.06-5.78,19.48-14.18,40.88-25.12,62.01-36.5,6.06-3.27,12.19-6.4,18.32-9.54,1.14-.58,2.39-1.1,3.64-1.25,2.25-.27,3.39,.67,2.77,3.16-.95,3.77-1.79,7.57-2.8,11.88,5.61-4.4,10.74-8.5,15.97-12.49,2.17-1.66,4.45-3.19,6.81-4.56,3.98-2.32,5.95-1.17,6.15,3.45,.05,1.07,0,2.14,0,3.52,5.32-1.78,10.01-9.13,15.59-2.4-2.19,.71-4.7,1.13-6.79,2.3-3.5,1.98-6.7,4.5-10.1,6.68-1.17,.75-2.56,1.18-4.33,1.97v-10.17c-4.79,3.69-9.2,6.97-13.49,10.42-4.54,3.66-8.93,7.51-13.46,11.18-.84,.68-2.05,.92-3.09,1.37-.29-1.18-1-2.45-.79-3.52,1.03-5.08,2.31-10.1,3.75-16.17Z"/><path d="M457.22,280.14c-3.79-12.12-7.58-24.23-11.54-36.91-1.51,3.46-2.85,6.54-4.2,9.62-.48,1.09-.8,2.3-1.52,3.2-.67,.84-1.77,1.33-2.68,1.97-.49-.87-1.16-1.69-1.42-2.62-1.19-4.2-1.88-8.6-3.49-12.63-1.97-4.93-4.68-9.56-7-14.2-5.15,8.39-10.25,16.7-15.35,25.01l-1.26-.67c1.66-4.13,3.24-8.28,4.99-12.37,2.89-6.76,5.83-13.5,8.91-20.17,.48-1.04,1.66-2.15,2.7-2.39,.57-.13,1.81,1.35,2.3,2.33,3.96,7.82,7.82,15.7,11.77,23.7,1.64-3.23,3.22-6.59,5.06-9.79,.51-.88,1.86-1.86,2.73-1.78,.84,.08,2.05,1.37,2.24,2.31,3.03,14.73,5.92,29.49,8.82,44.24,.06,.28-.11,.61-.17,.92l-.86,.23Z"/><path d="M382.34,437.09c11.64-7.13,22.74-13.93,33.84-20.73l.62,.83c-5.41,4.25-10.68,8.69-16.25,12.72-6.73,4.88-13.69,9.46-20.62,14.06-.97,.64-2.34,.68-3.52,1-.11-1.23-.47-2.5-.27-3.67,.55-3.14,1.34-6.23,2.25-10.33-5.85,4.77-10.94,9.08-16.19,13.18-8.07,6.29-16.19,12.5-24.43,18.57-1.57,1.16-3.29,3.41-6.4,1.25,4.14-3.5,8.07-6.82,12.01-10.14,10.29-8.67,20.57-17.34,30.87-26,1.46-1.22,2.89-2.51,4.49-3.52,3.03-1.9,5.26-.65,5.02,2.92-.21,3.17-.89,6.31-1.43,9.87Z"/><path d="M267.39,516.4c-4.74-2.81-9.48-5.62-14.54-8.62-2.97,4.14-5.95,8.29-9.41,13.11-4.22-6.68-7.98-12.64-11.77-18.63-6.5,5.27-12.65,10.25-18.8,15.24l-.62-.52c.33-.63,.53-1.37,1-1.86,5.32-5.6,10.55-11.3,16.08-16.69,3.16-3.08,4.65-2.74,7.12,.88,2.61,3.82,5.06,7.75,7.74,11.86,1.88-2.43,3.69-4.72,5.44-7.06,1.54-2.06,3.11-2.2,5.01-.45,4.37,4.02,8.79,7.99,13.19,11.97l-.43,.77Z"/></svg>